
<svg xmlns="http://www.w3.org/2000/svg" version="1.1" xmlns:xlink="http://www.w3.org/1999/xlink" preserveAspectRatio="none" x="0px" y="0px" width="300px" height="300px" viewBox="0 0 300 300">
<defs>
<g id="Layer1_0_FILL">
<path fill="#F56C6C" stroke="none" d="
M 300 150
Q 300 87.85 256.05 43.95 212.15 0 150 0 87.85 0 43.95 43.95 0 87.85 0 150 0 212.15 43.95 256.05 87.85 300 150 300 212.15 300 256.05 256.05 300 212.15 300 150 Z"/>
</g>

<g id="Layer0_0_FILL">
<path fill="#FFFFFF" stroke="none" d="
M 164.95 43.15
Q 164.95 39.45 162.35 36.85 159.75 34.25 156.05 34.25 152.4 34.25 149.75 36.85
L 98.15 88.45 46.6 36.85
Q 44 34.25 40.3 34.25 36.65 34.25 34 36.85 31.4 39.45 31.4 43.15 31.4 46.8 34 49.4
L 85.6 101 34 152.6
Q 31.4 155.25 31.4 158.9 31.4 162.6 34 165.2 36.65 167.8 40.3 167.8 44 167.8 46.6 165.2
L 98.15 113.6 149.75 165.15
Q 152.4 167.75 156.05 167.75 159.75 167.75 162.35 165.15 164.95 162.55 164.95 158.85 164.95 155.2 162.35 152.55
L 110.75 101 162.35 49.4
Q 164.95 46.8 164.95 43.15 Z"/>
</g>
</defs>

<g transform="matrix( 1, 0, 0, 1, 0,0) ">
<use xlink:href="#Layer1_0_FILL"/>
</g>

<g transform="matrix( 1, 0, 0, 1, 54.9,52.05) ">
<use xlink:href="#Layer0_0_FILL"/>
</g>
</svg>
