<?xml version="1.0" standalone="no"?><!DOCTYPE svg PUBLIC "-//W3C//DTD SVG 1.1//EN" "http://www.w3.org/Graphics/SVG/1.1/DTD/svg11.dtd"><svg t="1526647997203" class="icon" style="" viewBox="0 0 1024 1024" version="1.1" xmlns="http://www.w3.org/2000/svg" p-id="2491" xmlns:xlink="http://www.w3.org/1999/xlink" width="200" height="200"><defs><style type="text/css"></style></defs><path d="M384 896v-64h-64v64h64z m-128-64h64v-64h-64v64z m128-64v-64h-64v64h64z m-128-64h64v-64h-64v64z m64-64h64v-64h-64v64z m192 0v-64h-64v64h64z m-128-64h64v-64h-64v64z m-128 0h64v-64h-64v64z m-64 0v64h64v-64h-64z m-64-64v64h64v-64h-64z m128-64h-64v64h64v-64z m64 64h64v-64h-64v64z m192 0v-64h-64v64h64z m0-192h-64v64h64v-64z m-128 64v64h64v-64h-64z m0-64h-64v64h64v-64z m-64 128v-64h-64v64h64z m-64-128h-64v64h64v-64z m-128 64v64h64v-64h-64z" fill="#7ED1F3" p-id="2492"></path><path d="M832 128a63.84 63.84 0 0 1 33.624 9.56A64.4 64.4 0 0 1 896 192v512a64.48 64.48 0 0 1-30.312 54.44A64.232 64.232 0 0 1 832 768a64.864 64.864 0 0 1-28.624-6.752L476.624 597.872A64.152 64.152 0 0 0 448 591.12a64.056 64.056 0 0 0-64 64.008V832c0 35.312-28.688 64-64 64s-64-28.688-64-64V640c0-35.376-28.624-64-64-64-35.312 0-64-28.688-64-64V384c0-35.312 28.688-64 64-64h225.752a64 64 0 0 0 28.624-6.752l356.936-178.504A65.44 65.44 0 0 1 832 128m0-64c-19.56 0-39.184 4.504-57.248 13.504L417.752 256H192c-70.688 0-128 57.312-128 128v128c0 70.688 57.312 128 128 128v192c0 70.688 57.312 128 128 128s128-57.312 128-128V655.128l326.752 163.376A128.376 128.376 0 0 0 832 832a128.04 128.04 0 0 0 128-128V192a128.04 128.04 0 0 0-128-128z" fill="#7ED1F3" p-id="2493"></path></svg>