<?xml version="1.0" standalone="no"?><!DOCTYPE svg PUBLIC "-//W3C//DTD SVG 1.1//EN" "http://www.w3.org/Graphics/SVG/1.1/DTD/svg11.dtd"><svg t="1527064451181" class="icon" style="" viewBox="0 0 1024 1024" version="1.1" xmlns="http://www.w3.org/2000/svg" p-id="1923" xmlns:xlink="http://www.w3.org/1999/xlink" width="200" height="200"><defs><style type="text/css"></style></defs><path d="M1008.64 509.44c0-130.56-51.2-253.44-143.36-346.88S648.96 19.2 518.4 19.2C247.04 19.2 28.16 239.36 28.16 509.44c0 130.56 51.2 253.44 143.36 346.88s215.04 143.36 346.88 143.36c270.08 0 490.24-220.16 490.24-490.24M518.4 958.72c-120.32 0-232.96-47.36-318.72-131.84C115.2 742.4 67.84 629.76 67.84 509.44S115.2 276.48 199.68 190.72C284.16 106.24 398.08 58.88 518.4 58.88c120.32 0 232.96 47.36 318.72 131.84s131.84 198.4 131.84 318.72c0 120.32-47.36 232.96-131.84 318.72-85.76 84.48-198.4 130.56-318.72 130.56" fill="#9F9F9F" p-id="1924"></path><path d="M768 501.76c0 11.52-10.24 21.76-21.76 21.76h-204.8v204.8c0 11.52-10.24 21.76-21.76 21.76-5.12 0-11.52-2.56-15.36-6.4-3.84-3.84-6.4-8.96-6.4-15.36V524.8h-204.8c-6.4 0-11.52-2.56-15.36-6.4-3.84-3.84-6.4-10.24-6.4-15.36 0-11.52 10.24-21.76 21.76-21.76h204.8v-204.8c0-11.52 10.24-21.76 21.76-21.76 11.52 0 21.76 10.24 21.76 21.76v204.8h204.8c11.52-1.28 21.76 8.96 21.76 20.48z" fill="#9F9F9F" p-id="1925"></path></svg>